<?xml version="1.0" encoding="UTF-8" standalone="no"?>
<svg viewBox="0 0 48 48" xmlns="http://www.w3.org/2000/svg" xmlns:xlink="http://www.w3.org/1999/xlink">
<defs>
<linearGradient id="linearGradient5060">
<stop offset="0"/>
<stop offset="1" stop-opacity="0"/>
</linearGradient>
<linearGradient gradientUnits="userSpaceOnUse" id="linearGradient5027" x2="0" y1="-150.69685" y2="327.66039">
<stop offset="0" stop-opacity="0"/>
<stop offset=".5"/>
<stop offset="1" stop-opacity="0"/>
</linearGradient>
<linearGradient gradientTransform="matrix(1.3427,0,0,1.23538,-8.21961,-6.57719)" gradientUnits="userSpaceOnUse" id="linearGradient2240" x1="20.79401" x2="35.596" y1="18.37881" y2="39.60046">
<stop offset="0" stop-color="#f8f8f7"/>
<stop offset=".59929" stop-color="#e8e8e8"/>
<stop offset="1" stop-color="#e2e2de"/>
</linearGradient>
<radialGradient cx="605.71429" cy="486.64789" gradientTransform="matrix(-2.77439,0,0,1.96971,112.7623,-872.8854)" gradientUnits="userSpaceOnUse" id="radialGradient5031" r="117.14286" xlink:href="#linearGradient5060"/>
<radialGradient cx="605.71429" cy="486.64789" gradientTransform="matrix(2.77439,0,0,1.96971,-1891.633,-872.8854)" gradientUnits="userSpaceOnUse" id="radialGradient5029" r="117.14286" xlink:href="#linearGradient5060"/>
</defs>
<g transform="matrix(2.330573e-2,0,0,1.227058e-2,44.47891,44.41691)">
<path d="m-1559.2523-150.69685h1339.6335v478.35718h-1339.6335z" fill="url(#linearGradient5027)" opacity=".40206"/>
<path d="m-219.61876-150.68038v478.33079c142.87417.90045 345.40022-107.16966 345.40014-239.19618s-159.43682-239.13459-345.40014-239.13462z" fill="url(#radialGradient5029)" opacity=".40206"/>
<path d="m-1559.2523-150.68038v478.33079c-142.8742.90045-345.4002-107.16966-345.4002-239.19618s159.4368-239.13459 345.4002-239.13462z" fill="url(#radialGradient5031)" opacity=".40206"/>
</g>
<path d="m5.06811,1.4969h37.86378a.56651,.56651 0 0,1 .56651.56651v43.87008a.56651,.56651 0 0,1 -.56651.56651h-37.86378a.56651,.56651 0 0,1 -.56651-.56651v-43.87008a.56651,.56651 0 0,1 .56651-.56651" fill="url(#linearGradient2240)" fill-rule="evenodd" stroke="#888a85"/>
<path d="m9,10h27v2h-27z" fill="#999" fill-rule="evenodd"/>
<path d="m9,16h25v2h-25z" fill="#999" fill-rule="evenodd"/>
<path d="m9,22h22.97153v2h-22.97153z" fill="#999" fill-rule="evenodd"/>
<path d="m9,28h27v2h-27z" fill="#999" fill-rule="evenodd"/>
<path d="m9,34h17v2h-17z" fill="#999" fill-rule="evenodd"/>
<path d="m5.49971,2.49972h37.02557v43.02232h-37.02557z" fill="none" stroke="#fff"/>
</svg>
